<svg xmlns="http://www.w3.org/2000/svg" width="78" height="78" viewBox="0 0 78 78" fill="none"><path d="M39 75C58.8823 75 75 58.8823 75 39C75 19.1178 58.8823 3 39 3C19.1178 3 3 19.1178 3 39C3 58.8823 19.1178 75 39 75Z" fill="#24A1DE"></path><path fill-rule="evenodd" clip-rule="evenodd" d="M20.6804 36.708C31.1499 32.0508 38.1306 28.9802 41.6227 27.4962C51.5965 23.263 53.6796 22.5278 55.0193 22.5005C55.5161 22.4906 56.0034 22.6401 56.4125 22.9279C56.6997 23.1807 56.8827 23.5348 56.925 23.9195C56.9971 24.3979 57.0173 24.883 56.9852 25.3659C56.446 31.1789 54.105 45.2291 52.916 51.7225C52.4136 54.458 51.4223 55.3915 50.4611 55.4838C48.3779 55.6787 46.777 54.075 44.7675 52.7244C41.6059 50.6078 39.8208 49.305 36.753 47.226C33.2063 44.8324 35.5071 43.5297 37.5267 41.3891C38.0558 40.8283 47.2392 32.2936 47.4201 31.5208C47.4439 31.4067 47.4412 31.2884 47.4121 31.1756C47.383 31.0628 47.3284 30.9585 47.2526 30.8711C47.1427 30.801 47.0182 30.7579 46.8892 30.7455C46.7601 30.733 46.63 30.7514 46.5091 30.7993C46.1943 30.87 41.146 34.2768 31.3642 41.0198C29.9308 42.0251 28.6325 42.5152 27.4692 42.4902C26.1865 42.4594 23.7215 41.7482 21.8861 41.1224C19.6389 40.377 17.8672 39.9838 18.0078 38.7288C18.0904 38.0723 18.9813 37.3987 20.6804 36.708Z" fill="white"></path></svg>