<svg width="20" height="20" viewBox="0 0 20 20" fill="none" xmlns="http://www.w3.org/2000/svg">
<path d="M10 1C5.02949 1 1 5.02949 1 10C1 14.9705 5.02949 19 10 19C14.9705 19 19 14.9705 19 10C18.9944 5.03184 14.9682 1.00557 10 1ZM17.7837 13.1529L15.2242 13.5946C15.5172 12.5201 15.6754 11.4134 15.6952 10.3H18.3925C18.3587 11.2794 18.1526 12.2452 17.7837 13.1529ZM1.60747 10.3H4.30483C4.32461 11.4134 4.48281 12.5201 4.77578 13.5946L2.21626 13.1529C1.84741 12.2452 1.64131 11.2794 1.60747 10.3ZM2.21626 6.84707L4.77578 6.40542C4.48281 7.47988 4.32461 8.58657 4.30483 9.7H1.60747C1.64131 8.72061 1.84741 7.75483 2.21626 6.84707ZM10.3 5.81685C11.378 5.83062 12.4533 5.92876 13.5161 6.11055L14.575 6.29321C14.9003 7.40034 15.0754 8.54614 15.0955 9.7H10.3V5.81685ZM13.6183 5.51919C12.5219 5.33184 11.4123 5.23062 10.3 5.21685V1.61685C12.0199 1.78208 13.5139 3.35679 14.3605 5.64854L13.6183 5.51919ZM9.7 5.21685C8.58774 5.23062 7.47842 5.33184 6.38198 5.51919L5.63945 5.64766C6.48613 3.35532 7.98013 1.78003 9.7 1.61553V5.21685ZM6.48423 6.11055C7.54683 5.92876 8.62202 5.83062 9.7 5.81685V9.7H4.90454C4.92461 8.54614 5.09966 7.40034 5.425 6.29321L6.48423 6.11055ZM4.90454 10.3H9.7V14.1832C8.62202 14.1694 7.54668 14.0712 6.48394 13.8895L5.425 13.7068C5.09966 12.5997 4.92461 11.4539 4.90454 10.3ZM6.38169 14.4808C7.47813 14.6685 8.5876 14.7701 9.7 14.7848V18.3848C7.98013 18.2194 6.48613 16.6447 5.63945 14.3529L6.38169 14.4808ZM10.3 14.7848C11.4123 14.7701 12.5216 14.6685 13.618 14.4808L14.3605 14.3523C13.5139 16.6447 12.0199 18.22 10.3 18.3845V14.7848ZM13.5158 13.8895C12.4532 14.0712 11.378 14.1694 10.3 14.1832V10.3H15.0955C15.0754 11.4539 14.9003 12.5997 14.575 13.7068L13.5158 13.8895ZM15.6952 9.7C15.6754 8.58657 15.5172 7.47988 15.2242 6.40542L17.7837 6.84707C18.1526 7.75483 18.3587 8.72061 18.3925 9.7H15.6952ZM17.4802 6.18584L15.0268 5.7625C14.5857 4.32358 13.7605 3.03218 12.6399 2.02744C14.7354 2.72676 16.4731 4.21958 17.4802 6.18584ZM7.36006 2.02744C6.23945 3.03218 5.41431 4.32358 4.97324 5.7625L2.51978 6.18584C3.52686 4.21958 5.2646 2.72676 7.36006 2.02744ZM2.51978 13.8142L4.97324 14.2375C5.41431 15.6764 6.23945 16.9678 7.36006 17.9726C5.2646 17.2732 3.52686 15.7804 2.51978 13.8142ZM12.6399 17.9726C13.7605 16.9678 14.5857 15.6764 15.0268 14.2375L17.4802 13.8142C16.4731 15.7804 14.7354 17.2732 12.6399 17.9726Z" fill="#4E4E4E" stroke="#4E4E4E" stroke-width="0.5"/>
</svg>
