<svg xmlns="http://www.w3.org/2000/svg" width="56" height="56" viewBox="0 0 56 56" fill="none"><path d="M28 56C12.536 56 0 43.464 0 28C0 12.536 12.536 0 28 0C43.464 0 56 12.536 56 28C56 43.464 43.464 56 28 56Z" fill="#DBEFDC"></path><mask id="path-2-outside-1_1177_47" maskUnits="userSpaceOnUse" x="10.375" y="11.25" width="37" height="31" fill="black"><rect fill="white" x="10.375" y="11.25" width="37" height="31"></rect><path d="M11.375 30.2305C11.5627 29.9736 11.7035 29.7168 11.9382 29.4833C12.3372 29.0863 12.7596 28.7127 13.182 28.3624C13.3462 28.2223 13.4401 28.0822 13.4401 27.8487C13.4401 24.9998 13.4401 22.151 13.4401 19.2787C13.4401 17.6675 14.3553 16.3832 15.8572 15.8461C16.2327 15.706 16.6551 15.6826 17.0541 15.6593C17.5938 15.6359 18.1101 15.6593 18.6968 15.6593C18.6968 15.4725 18.6968 15.309 18.6968 15.1222C18.6968 13.3942 19.8701 12.25 21.6067 12.25C22.7331 12.25 23.8595 12.25 24.986 12.25C25.8073 12.25 26.1828 12.6236 26.2063 13.4409C26.2063 13.4876 26.2063 13.5343 26.2297 13.6044C26.5817 13.6044 26.9337 13.6044 27.2858 13.6044C27.7082 13.6044 28.1306 13.6044 28.5295 13.6044C29.1631 13.6044 29.6325 14.0481 29.6325 14.6318C29.6325 15.1923 29.1631 15.6359 28.553 15.6359C27.802 15.6359 27.0276 15.6359 26.2532 15.6359C26.2532 16.3131 26.2532 16.967 26.2532 17.6675C26.3705 17.6675 26.4644 17.6675 26.5817 17.6675C27.2388 17.6675 27.9194 17.6675 28.5764 17.6675C29.1866 17.6675 29.6325 18.1112 29.6325 18.6716C29.6325 19.2554 29.1866 19.6991 28.5764 19.6991C27.9194 19.6991 27.2623 19.6991 26.6052 19.6991C26.4879 19.6991 26.3705 19.6991 26.2297 19.6991C26.2297 19.8625 26.2297 19.9793 26.2297 20.096C26.2063 20.6331 25.7838 21.0534 25.2676 21.0534C23.9534 21.0768 22.6158 21.0768 21.3016 21.0534C19.9405 21.0067 18.7906 19.8392 18.7437 18.4614C18.7437 18.2046 18.7437 17.9711 18.7437 17.7142C18.0397 17.7142 17.3826 17.6442 16.7255 17.7376C15.998 17.831 15.5287 18.5082 15.5287 19.3021C15.5287 20.7499 15.5287 22.1977 15.5287 23.6221C15.5287 24.5094 15.5287 25.3968 15.5287 26.3075C15.5287 26.4242 15.5287 26.541 15.5287 26.7045C15.7399 26.5877 15.8807 26.4943 16.0215 26.4242C19.0722 24.7196 22.3342 23.8322 25.8073 23.8089C28.0367 23.7855 30.1253 24.3226 32.12 25.2333C34.1616 26.1674 35.9921 27.405 37.6817 28.8995C37.8929 29.0863 38.1511 29.2264 38.4092 29.2965C40.005 29.7401 41.6007 30.1371 43.1965 30.5808C45.0269 31.0945 46.3411 32.7992 46.3646 34.6673C46.388 35.8582 46.3646 37.0257 46.3646 38.2167C46.3646 38.8471 45.9187 39.2675 45.2851 39.2675C44.3464 39.2675 43.3842 39.2675 42.4455 39.2675C42.2343 39.2675 42.1405 39.3142 42.0701 39.5243C41.5303 40.9955 40.1692 41.9762 38.5969 41.9996C37.0246 42.0229 35.6401 41.0889 35.0534 39.6177C34.9595 39.3609 34.8422 39.2908 34.5606 39.2908C30.7589 39.2908 26.9807 39.2908 23.179 39.2908C22.8974 39.2908 22.78 39.3609 22.6862 39.6177C22.0995 41.0889 20.7149 42.0229 19.1426 41.9996C17.5703 41.9762 16.2092 40.9955 15.6695 39.501C15.5991 39.3142 15.5052 39.2675 15.3175 39.2675C14.4492 39.2675 13.5574 39.2441 12.6892 39.2675C12.0555 39.2908 11.6331 39.0573 11.3985 38.4735C11.375 35.7414 11.375 32.986 11.375 30.2305ZM44.276 37.2593C44.2995 37.1892 44.2995 37.1658 44.2995 37.1191C44.2995 36.3719 44.2995 35.6013 44.2995 34.8541C44.2995 33.6865 43.5954 32.8225 42.469 32.5189C41.5773 32.2854 40.6855 32.0986 39.8172 31.8184C38.1511 31.2813 36.4849 31.0712 34.7483 31.1646C34.3963 31.1879 34.0443 31.1646 33.6923 31.1646C30.1487 31.1646 26.6052 31.1646 23.0617 31.1646C21.6536 31.1646 20.3395 30.8143 19.213 29.997C18.556 29.53 17.9693 28.9228 17.3826 28.3624C17.1949 28.1756 17.0775 28.1756 16.8663 28.2924C15.7164 28.9695 14.6604 29.7635 13.6983 30.6508C13.534 30.7909 13.4636 30.931 13.4636 31.1646C13.4636 33.0794 13.4636 34.9942 13.4636 36.9323C13.4636 37.0491 13.4636 37.1425 13.487 37.2826C14.1676 37.2826 14.8012 37.2826 15.4348 37.2826C15.5287 37.2826 15.646 37.1658 15.6695 37.0724C16.2092 35.6013 17.5938 34.5972 19.1426 34.5739C20.7384 34.5505 22.1464 35.4846 22.7331 37.0024C22.827 37.2125 22.8974 37.306 23.1555 37.306C26.9807 37.306 30.8293 37.306 34.6544 37.306C34.8657 37.306 34.983 37.2359 35.0534 37.0257C35.5697 35.6947 36.5318 34.8774 37.9398 34.6439C39.7938 34.317 41.4599 35.3211 42.117 37.0958C42.1405 37.1892 42.2578 37.306 42.3282 37.306C42.9384 37.2593 43.5954 37.2593 44.276 37.2593ZM19.1192 27.1715C19.1426 27.2415 19.1426 27.2649 19.1661 27.2882C20.1752 28.4325 21.3955 29.1096 22.9678 29.1096C26.7225 29.1096 30.4773 29.1096 34.232 29.1096C34.3259 29.1096 34.4198 29.1096 34.6075 29.0863C32.1669 27.3349 29.609 26.0973 26.6521 25.8872C24.0473 25.7237 21.5363 26.2141 19.1192 27.1715ZM24.1411 14.2816C23.2494 14.2816 22.4046 14.2816 21.5598 14.2816C21.02 14.2816 20.7619 14.5384 20.7619 15.0989C20.7619 16.1497 20.7619 17.2005 20.7619 18.2279C20.7619 18.765 21.02 19.0219 21.5598 19.0219C22.3342 19.0219 23.1321 19.0219 23.9065 19.0219C23.9769 19.0219 24.0707 18.9985 24.1411 18.9985C24.1411 17.434 24.1411 15.8928 24.1411 14.2816ZM19.1661 36.5821C18.2274 36.5821 17.453 37.3527 17.453 38.2867C17.453 39.2208 18.2274 39.9914 19.1661 39.9914C20.1048 39.9914 20.8792 39.2208 20.8792 38.2867C20.8792 37.3293 20.1283 36.5821 19.1661 36.5821ZM38.5265 36.5821C37.5878 36.5821 36.8134 37.3293 36.8134 38.2867C36.8134 39.2208 37.5878 39.9914 38.5265 39.9914C39.4652 39.9914 40.2396 39.2208 40.2396 38.2867C40.2396 37.3527 39.4652 36.5821 38.5265 36.5821Z"></path></mask><path d="M11.375 30.2305C11.5627 29.9736 11.7035 29.7168 11.9382 29.4833C12.3372 29.0863 12.7596 28.7127 13.182 28.3624C13.3462 28.2223 13.4401 28.0822 13.4401 27.8487C13.4401 24.9998 13.4401 22.151 13.4401 19.2787C13.4401 17.6675 14.3553 16.3832 15.8572 15.8461C16.2327 15.706 16.6551 15.6826 17.0541 15.6593C17.5938 15.6359 18.1101 15.6593 18.6968 15.6593C18.6968 15.4725 18.6968 15.309 18.6968 15.1222C18.6968 13.3942 19.8701 12.25 21.6067 12.25C22.7331 12.25 23.8595 12.25 24.986 12.25C25.8073 12.25 26.1828 12.6236 26.2063 13.4409C26.2063 13.4876 26.2063 13.5343 26.2297 13.6044C26.5817 13.6044 26.9337 13.6044 27.2858 13.6044C27.7082 13.6044 28.1306 13.6044 28.5295 13.6044C29.1631 13.6044 29.6325 14.0481 29.6325 14.6318C29.6325 15.1923 29.1631 15.6359 28.553 15.6359C27.802 15.6359 27.0276 15.6359 26.2532 15.6359C26.2532 16.3131 26.2532 16.967 26.2532 17.6675C26.3705 17.6675 26.4644 17.6675 26.5817 17.6675C27.2388 17.6675 27.9194 17.6675 28.5764 17.6675C29.1866 17.6675 29.6325 18.1112 29.6325 18.6716C29.6325 19.2554 29.1866 19.6991 28.5764 19.6991C27.9194 19.6991 27.2623 19.6991 26.6052 19.6991C26.4879 19.6991 26.3705 19.6991 26.2297 19.6991C26.2297 19.8625 26.2297 19.9793 26.2297 20.096C26.2063 20.6331 25.7838 21.0534 25.2676 21.0534C23.9534 21.0768 22.6158 21.0768 21.3016 21.0534C19.9405 21.0067 18.7906 19.8392 18.7437 18.4614C18.7437 18.2046 18.7437 17.9711 18.7437 17.7142C18.0397 17.7142 17.3826 17.6442 16.7255 17.7376C15.998 17.831 15.5287 18.5082 15.5287 19.3021C15.5287 20.7499 15.5287 22.1977 15.5287 23.6221C15.5287 24.5094 15.5287 25.3968 15.5287 26.3075C15.5287 26.4242 15.5287 26.541 15.5287 26.7045C15.7399 26.5877 15.8807 26.4943 16.0215 26.4242C19.0722 24.7196 22.3342 23.8322 25.8073 23.8089C28.0367 23.7855 30.1253 24.3226 32.12 25.2333C34.1616 26.1674 35.9921 27.405 37.6817 28.8995C37.8929 29.0863 38.1511 29.2264 38.4092 29.2965C40.005 29.7401 41.6007 30.1371 43.1965 30.5808C45.0269 31.0945 46.3411 32.7992 46.3646 34.6673C46.388 35.8582 46.3646 37.0257 46.3646 38.2167C46.3646 38.8471 45.9187 39.2675 45.2851 39.2675C44.3464 39.2675 43.3842 39.2675 42.4455 39.2675C42.2343 39.2675 42.1405 39.3142 42.0701 39.5243C41.5303 40.9955 40.1692 41.9762 38.5969 41.9996C37.0246 42.0229 35.6401 41.0889 35.0534 39.6177C34.9595 39.3609 34.8422 39.2908 34.5606 39.2908C30.7589 39.2908 26.9807 39.2908 23.179 39.2908C22.8974 39.2908 22.78 39.3609 22.6862 39.6177C22.0995 41.0889 20.7149 42.0229 19.1426 41.9996C17.5703 41.9762 16.2092 40.9955 15.6695 39.501C15.5991 39.3142 15.5052 39.2675 15.3175 39.2675C14.4492 39.2675 13.5574 39.2441 12.6892 39.2675C12.0555 39.2908 11.6331 39.0573 11.3985 38.4735C11.375 35.7414 11.375 32.986 11.375 30.2305ZM44.276 37.2593C44.2995 37.1892 44.2995 37.1658 44.2995 37.1191C44.2995 36.3719 44.2995 35.6013 44.2995 34.8541C44.2995 33.6865 43.5954 32.8225 42.469 32.5189C41.5773 32.2854 40.6855 32.0986 39.8172 31.8184C38.1511 31.2813 36.4849 31.0712 34.7483 31.1646C34.3963 31.1879 34.0443 31.1646 33.6923 31.1646C30.1487 31.1646 26.6052 31.1646 23.0617 31.1646C21.6536 31.1646 20.3395 30.8143 19.213 29.997C18.556 29.53 17.9693 28.9228 17.3826 28.3624C17.1949 28.1756 17.0775 28.1756 16.8663 28.2924C15.7164 28.9695 14.6604 29.7635 13.6983 30.6508C13.534 30.7909 13.4636 30.931 13.4636 31.1646C13.4636 33.0794 13.4636 34.9942 13.4636 36.9323C13.4636 37.0491 13.4636 37.1425 13.487 37.2826C14.1676 37.2826 14.8012 37.2826 15.4348 37.2826C15.5287 37.2826 15.646 37.1658 15.6695 37.0724C16.2092 35.6013 17.5938 34.5972 19.1426 34.5739C20.7384 34.5505 22.1464 35.4846 22.7331 37.0024C22.827 37.2125 22.8974 37.306 23.1555 37.306C26.9807 37.306 30.8293 37.306 34.6544 37.306C34.8657 37.306 34.983 37.2359 35.0534 37.0257C35.5697 35.6947 36.5318 34.8774 37.9398 34.6439C39.7938 34.317 41.4599 35.3211 42.117 37.0958C42.1405 37.1892 42.2578 37.306 42.3282 37.306C42.9384 37.2593 43.5954 37.2593 44.276 37.2593ZM19.1192 27.1715C19.1426 27.2415 19.1426 27.2649 19.1661 27.2882C20.1752 28.4325 21.3955 29.1096 22.9678 29.1096C26.7225 29.1096 30.4773 29.1096 34.232 29.1096C34.3259 29.1096 34.4198 29.1096 34.6075 29.0863C32.1669 27.3349 29.609 26.0973 26.6521 25.8872C24.0473 25.7237 21.5363 26.2141 19.1192 27.1715ZM24.1411 14.2816C23.2494 14.2816 22.4046 14.2816 21.5598 14.2816C21.02 14.2816 20.7619 14.5384 20.7619 15.0989C20.7619 16.1497 20.7619 17.2005 20.7619 18.2279C20.7619 18.765 21.02 19.0219 21.5598 19.0219C22.3342 19.0219 23.1321 19.0219 23.9065 19.0219C23.9769 19.0219 24.0707 18.9985 24.1411 18.9985C24.1411 17.434 24.1411 15.8928 24.1411 14.2816ZM19.1661 36.5821C18.2274 36.5821 17.453 37.3527 17.453 38.2867C17.453 39.2208 18.2274 39.9914 19.1661 39.9914C20.1048 39.9914 20.8792 39.2208 20.8792 38.2867C20.8792 37.3293 20.1283 36.5821 19.1661 36.5821ZM38.5265 36.5821C37.5878 36.5821 36.8134 37.3293 36.8134 38.2867C36.8134 39.2208 37.5878 39.9914 38.5265 39.9914C39.4652 39.9914 40.2396 39.2208 40.2396 38.2867C40.2396 37.3527 39.4652 36.5821 38.5265 36.5821Z" fill="#212121"></path><path d="M11.375 30.2305C11.5627 29.9736 11.7035 29.7168 11.9382 29.4833C12.3372 29.0863 12.7596 28.7127 13.182 28.3624C13.3462 28.2223 13.4401 28.0822 13.4401 27.8487C13.4401 24.9998 13.4401 22.151 13.4401 19.2787C13.4401 17.6675 14.3553 16.3832 15.8572 15.8461C16.2327 15.706 16.6551 15.6826 17.0541 15.6593C17.5938 15.6359 18.1101 15.6593 18.6968 15.6593C18.6968 15.4725 18.6968 15.309 18.6968 15.1222C18.6968 13.3942 19.8701 12.25 21.6067 12.25C22.7331 12.25 23.8595 12.25 24.986 12.25C25.8073 12.25 26.1828 12.6236 26.2063 13.4409C26.2063 13.4876 26.2063 13.5343 26.2297 13.6044C26.5817 13.6044 26.9337 13.6044 27.2858 13.6044C27.7082 13.6044 28.1306 13.6044 28.5295 13.6044C29.1631 13.6044 29.6325 14.0481 29.6325 14.6318C29.6325 15.1923 29.1631 15.6359 28.553 15.6359C27.802 15.6359 27.0276 15.6359 26.2532 15.6359C26.2532 16.3131 26.2532 16.967 26.2532 17.6675C26.3705 17.6675 26.4644 17.6675 26.5817 17.6675C27.2388 17.6675 27.9194 17.6675 28.5764 17.6675C29.1866 17.6675 29.6325 18.1112 29.6325 18.6716C29.6325 19.2554 29.1866 19.6991 28.5764 19.6991C27.9194 19.6991 27.2623 19.6991 26.6052 19.6991C26.4879 19.6991 26.3705 19.6991 26.2297 19.6991C26.2297 19.8625 26.2297 19.9793 26.2297 20.096C26.2063 20.6331 25.7838 21.0534 25.2676 21.0534C23.9534 21.0768 22.6158 21.0768 21.3016 21.0534C19.9405 21.0067 18.7906 19.8392 18.7437 18.4614C18.7437 18.2046 18.7437 17.9711 18.7437 17.7142C18.0397 17.7142 17.3826 17.6442 16.7255 17.7376C15.998 17.831 15.5287 18.5082 15.5287 19.3021C15.5287 20.7499 15.5287 22.1977 15.5287 23.6221C15.5287 24.5094 15.5287 25.3968 15.5287 26.3075C15.5287 26.4242 15.5287 26.541 15.5287 26.7045C15.7399 26.5877 15.8807 26.4943 16.0215 26.4242C19.0722 24.7196 22.3342 23.8322 25.8073 23.8089C28.0367 23.7855 30.1253 24.3226 32.12 25.2333C34.1616 26.1674 35.9921 27.405 37.6817 28.8995C37.8929 29.0863 38.1511 29.2264 38.4092 29.2965C40.005 29.7401 41.6007 30.1371 43.1965 30.5808C45.0269 31.0945 46.3411 32.7992 46.3646 34.6673C46.388 35.8582 46.3646 37.0257 46.3646 38.2167C46.3646 38.8471 45.9187 39.2675 45.2851 39.2675C44.3464 39.2675 43.3842 39.2675 42.4455 39.2675C42.2343 39.2675 42.1405 39.3142 42.0701 39.5243C41.5303 40.9955 40.1692 41.9762 38.5969 41.9996C37.0246 42.0229 35.6401 41.0889 35.0534 39.6177C34.9595 39.3609 34.8422 39.2908 34.5606 39.2908C30.7589 39.2908 26.9807 39.2908 23.179 39.2908C22.8974 39.2908 22.78 39.3609 22.6862 39.6177C22.0995 41.0889 20.7149 42.0229 19.1426 41.9996C17.5703 41.9762 16.2092 40.9955 15.6695 39.501C15.5991 39.3142 15.5052 39.2675 15.3175 39.2675C14.4492 39.2675 13.5574 39.2441 12.6892 39.2675C12.0555 39.2908 11.6331 39.0573 11.3985 38.4735C11.375 35.7414 11.375 32.986 11.375 30.2305ZM44.276 37.2593C44.2995 37.1892 44.2995 37.1658 44.2995 37.1191C44.2995 36.3719 44.2995 35.6013 44.2995 34.8541C44.2995 33.6865 43.5954 32.8225 42.469 32.5189C41.5773 32.2854 40.6855 32.0986 39.8172 31.8184C38.1511 31.2813 36.4849 31.0712 34.7483 31.1646C34.3963 31.1879 34.0443 31.1646 33.6923 31.1646C30.1487 31.1646 26.6052 31.1646 23.0617 31.1646C21.6536 31.1646 20.3395 30.8143 19.213 29.997C18.556 29.53 17.9693 28.9228 17.3826 28.3624C17.1949 28.1756 17.0775 28.1756 16.8663 28.2924C15.7164 28.9695 14.6604 29.7635 13.6983 30.6508C13.534 30.7909 13.4636 30.931 13.4636 31.1646C13.4636 33.0794 13.4636 34.9942 13.4636 36.9323C13.4636 37.0491 13.4636 37.1425 13.487 37.2826C14.1676 37.2826 14.8012 37.2826 15.4348 37.2826C15.5287 37.2826 15.646 37.1658 15.6695 37.0724C16.2092 35.6013 17.5938 34.5972 19.1426 34.5739C20.7384 34.5505 22.1464 35.4846 22.7331 37.0024C22.827 37.2125 22.8974 37.306 23.1555 37.306C26.9807 37.306 30.8293 37.306 34.6544 37.306C34.8657 37.306 34.983 37.2359 35.0534 37.0257C35.5697 35.6947 36.5318 34.8774 37.9398 34.6439C39.7938 34.317 41.4599 35.3211 42.117 37.0958C42.1405 37.1892 42.2578 37.306 42.3282 37.306C42.9384 37.2593 43.5954 37.2593 44.276 37.2593ZM19.1192 27.1715C19.1426 27.2415 19.1426 27.2649 19.1661 27.2882C20.1752 28.4325 21.3955 29.1096 22.9678 29.1096C26.7225 29.1096 30.4773 29.1096 34.232 29.1096C34.3259 29.1096 34.4198 29.1096 34.6075 29.0863C32.1669 27.3349 29.609 26.0973 26.6521 25.8872C24.0473 25.7237 21.5363 26.2141 19.1192 27.1715ZM24.1411 14.2816C23.2494 14.2816 22.4046 14.2816 21.5598 14.2816C21.02 14.2816 20.7619 14.5384 20.7619 15.0989C20.7619 16.1497 20.7619 17.2005 20.7619 18.2279C20.7619 18.765 21.02 19.0219 21.5598 19.0219C22.3342 19.0219 23.1321 19.0219 23.9065 19.0219C23.9769 19.0219 24.0707 18.9985 24.1411 18.9985C24.1411 17.434 24.1411 15.8928 24.1411 14.2816ZM19.1661 36.5821C18.2274 36.5821 17.453 37.3527 17.453 38.2867C17.453 39.2208 18.2274 39.9914 19.1661 39.9914C20.1048 39.9914 20.8792 39.2208 20.8792 38.2867C20.8792 37.3293 20.1283 36.5821 19.1661 36.5821ZM38.5265 36.5821C37.5878 36.5821 36.8134 37.3293 36.8134 38.2867C36.8134 39.2208 37.5878 39.9914 38.5265 39.9914C39.4652 39.9914 40.2396 39.2208 40.2396 38.2867C40.2396 37.3527 39.4652 36.5821 38.5265 36.5821Z" stroke="#212121" stroke-width="0.2" mask="url(#path-2-outside-1_1177_47)"></path></svg>
