<svg xmlns="http://www.w3.org/2000/svg" width="180" height="168" viewBox="0 0 180 168" fill="none"><path d="M82.9071 129.944C103.937 134.362 126.245 126.946 138.579 108.965C148.995 93.7785 150.598 73.307 142.921 56.6117C131.796 32.4212 103.364 21.4295 78.3977 28.7674C57.2979 35.9598 44.6618 56.4976 43.5849 78.3123C42.3362 103.597 58.0553 124.725 82.9071 129.944ZM50.2956 87.033C52.5597 87.033 54.8237 87.033 57.0877 87.033C58.7116 87.033 60.5312 86 59.6688 84C58.9927 82.4321 56.2466 81.1757 54.481 81.1757C52.9709 81.1757 51.4596 81.1757 49.9495 81.1757C49.9193 70.269 53.2903 59.2982 59.5654 50.5635C59.7397 50.6159 59.9151 50.6636 60.0916 50.6938C60.1602 50.7416 60.2299 50.7905 60.2984 50.8382C60.7549 51.156 61.2103 51.4749 61.6668 51.7927C62.7308 52.5353 63.796 53.2768 64.8601 54.0194C65.9648 54.79 68.3635 55.7852 69.3753 54.3384C70.3836 52.8962 68.6005 50.9418 67.5318 50.1968C66.0113 49.1364 64.4907 48.076 62.9701 47.0156C62.8493 46.9306 62.7297 46.8468 62.61 46.763C67.2844 41.525 73.1622 37.3892 80.1157 35.0193C83.2544 34.0974 86.4593 33.4933 89.677 33.2C89.6166 34.6201 89.6131 36.0436 89.6677 37.4742C89.9333 44.4338 95.5 44.4338 96.5062 39.3971C96.4237 37.2728 96.5376 35.1648 96.7885 33.0614C107.432 33.5911 117.772 37.4742 125.833 44.4338C123.538 45.7934 121.386 47.3497 119.388 49.1236C117 51.2437 116.909 52.9245 118 54C118.881 54.8684 123.191 54.058 125.5 53C128 51.5 128.87 51.1792 131.11 49.8395C132.345 51.3445 133.491 52.945 134.538 54.6422C139.312 62.3863 141.525 71.4504 141.231 80.4541C139.116 80.4541 137 80.4541 134.885 80.4541C133.261 80.4541 132.312 81.5692 132.996 83.1569C133.672 84.7248 135.726 86.3113 137.492 86.3113C138.556 86.3113 139.619 86.3113 140.683 86.3113C140.064 90.2713 138.964 94.1626 137.35 97.8583C135.366 102.405 132.731 106.351 129.628 109.72C129.559 109.679 129.485 109.632 129.42 109.596C129.235 109.491 129.134 109.437 129.092 109.415C128.922 109.31 128.752 109.205 128.584 109.096C128.137 108.803 127.7 108.495 127.274 108.173C127.118 108.054 126.965 107.932 126.812 107.809C126.857 107.842 126.773 107.766 126.534 107.56C126.153 107.191 125.764 106.833 125.392 106.452C124.327 105.363 121.505 103.098 120.004 104.017C118.442 104.974 120.245 108.052 121.126 108.952C122.661 110.524 124.368 111.869 126.19 113.056C118.306 119.878 108.21 123.584 97.9582 124.243C97.8816 122.284 97.6864 120.334 97.317 118.389C96.9732 116.577 95.2115 113.967 93.5039 113.5C92.1889 113.14 90.1324 114.646 90.4785 116.466C90.9664 119.035 91.2104 121.618 91.1337 124.231C81.6595 123.589 72.4548 120.335 65.1551 114.52C67.5237 112.795 69.6611 110.766 71.5104 108.479C75.5039 104.5 72.5 98 65.1517 104.017C63.5358 106.016 61.7063 107.736 59.6688 109.23C55.0362 103.798 51.7395 96.9225 50.4943 88.6138C50.4199 88.0876 50.3572 87.5603 50.2956 87.033Z" fill="#212121"></path><path d="M92.5803 86.6943C99.1505 86.8363 105.909 86.0378 112.453 85.5536C116.208 85.2754 118.5 79.772 108.311 79.772C103.338 80.1398 97.9517 80.986 92.7941 81.0337C93.0879 79.5031 93.3679 77.9712 93.6293 76.4348C94.0416 74.0159 94.4168 71.5913 94.7502 69.1597C95.5285 63.4875 95.6155 61.7118 96 56C96 51.9176 90.5 51.4176 89.5 57C89.0609 63.5278 88.5239 61.8299 87.5621 68.303C86.9511 72.4119 84.0993 79.2388 85.8243 83.1581C87.08 86.0134 89.8157 86.6338 92.5803 86.6943Z" fill="#8B68C8"></path><path d="M161.086 51.1583C151.12 28.5998 129.454 13.9111 105.505 10.0583C97.5008 9.5 103.641 15.0402 106.501 15.5C128.001 18.9565 145.82 31.3003 154.314 49.8604C161.495 65.5512 162.011 84.0671 155.921 100.199C149.777 116.47 136.573 129.169 121.089 136.6C105.125 144.261 81.6893 148.603 65.7808 138.784C47.3307 127.395 31.1481 108.786 31.7743 86.3299C33.4667 88.2261 35.1964 90.0874 36.969 91.909C38.0168 92.9846 39.7569 93.4405 41.2357 92.5C42.7795 91.5176 41.3968 89.4207 40.5 88.5C37.2614 85.1733 34.8967 82.6354 31.9566 79.0398C30.8821 77.7256 28.9631 76.2287 27.1278 76.6733C26.9442 76.7176 26.7897 76.7862 26.6468 76.8619C26.5028 76.8782 26.3727 76.9178 26.2461 76.9632C25.4155 76.8677 24.6767 77.0819 24.2423 77.7605C20.5437 83.5363 18.1103 88.666 14.5023 94.5C11.5014 100 16.5 103.5 19.6423 99.6369C21.4881 96.6512 23.3467 93.6748 25.2169 90.7043C27.3427 108.776 39.1273 124.398 53.4792 135.77C62.4191 142.854 71.5657 148.23 83.0472 149.529C93.5634 150.719 104.394 149.639 114.516 146.571C133.821 140.718 151.419 127.672 160.317 109.231C169.021 91.1897 169.169 69.453 161.086 51.1583Z" fill="#212121"></path></svg>