<svg xmlns="http://www.w3.org/2000/svg" width="180" height="168" viewBox="0 0 180 168" fill="none"><path d="M48.5252 103.774C48.4904 103.763 48.4567 103.761 48.4219 103.753C48.4688 103.822 48.5145 103.896 48.5601 103.973C48.5474 103.907 48.5392 103.84 48.5252 103.774Z" fill="#212121"></path><path d="M32.3644 138.063C32.37 138.054 32.3762 138.046 32.3824 138.038C32.3656 138.04 32.3495 138.045 32.332 138.047C32.3426 138.051 32.3532 138.058 32.3644 138.063Z" fill="#212121"></path><path d="M67.7773 123.272C67.7786 123.307 67.7792 123.341 67.7805 123.376C67.7811 123.387 67.7818 123.398 67.7824 123.409C67.7799 123.363 67.7799 123.318 67.7773 123.272Z" fill="#212121"></path><path d="M1.72656 103.835C1.76017 103.844 1.79378 103.846 1.82738 103.853C1.85845 103.85 1.88509 103.842 1.91742 103.841C1.85275 103.838 1.79124 103.835 1.72656 103.835Z" fill="#212121"></path><path d="M154.691 93.1264C155.542 84.2195 153.248 75.3646 152.72 66.498C151.248 51.8132 150.199 37.0753 148.065 22.4642C148.026 22.2254 147.987 21.9871 147.946 21.7482C147.96 21.8373 147.975 21.9246 147.989 22.0143C147.301 18.5653 146.997 15.0823 146.939 11.6797C147.698 6.75591 136.955 10.2352 133.874 9.67577C123.103 10.5731 112.301 11.0652 101.505 11.5683C89.1099 12.1364 76.7825 13.7777 64.4619 15.1466C59.0597 14.6088 57.9019 19.6465 55.8263 23.5491C55.8578 23.4965 55.888 23.4334 55.9176 23.3777C55.9114 23.3932 55.9028 23.408 55.896 23.4216C55.8954 23.4229 55.8954 23.4235 55.8948 23.4241C55.8942 23.4247 55.8942 23.426 55.8935 23.4266V23.426C55.8874 23.434 55.8831 23.4433 55.88 23.4514C55.8824 23.4464 55.8855 23.4415 55.888 23.4365C55.8849 23.4427 55.8812 23.4495 55.8781 23.4557C55.8787 23.4544 55.8794 23.4532 55.88 23.4514C55.8787 23.4538 55.8775 23.4557 55.8763 23.4582C55.8769 23.4575 55.8775 23.4569 55.8775 23.4563C55.8565 23.4965 55.8356 23.5368 55.8134 23.5764C55.8177 23.5677 55.822 23.559 55.8251 23.5498C55.8146 23.572 55.8022 23.5925 55.793 23.6154C55.793 23.6147 55.7936 23.6147 55.7936 23.6147C55.793 23.6166 55.7918 23.6178 55.7911 23.6197V23.6191C50.0441 33.7074 45.2298 44.284 40.0441 54.665C38.5865 58.892 34.4464 63.1263 35.062 67.6614C35.9625 74.6523 36.0705 82.2645 38.0369 89.1817C38.0468 89.1841 38.0573 89.1841 38.0665 89.1928C38.3355 89.4478 38.7191 89.4713 39.0559 89.5815C39.3828 89.6879 39.695 89.8352 40.0169 89.9559C40.6048 90.1774 41.2019 90.464 41.8169 90.6187C41.2 83.5066 40.3568 76.1128 39.2404 68.9821C48.9986 70.5869 58.9431 70.6475 68.7181 72.1929C69.1967 80.3076 68.71 88.754 70.7345 96.6416C72.7361 98.7742 76.3581 97.4003 78.9636 98.3503C82.2896 98.4852 89.8846 101.296 90.061 95.9831C89.2727 88.702 87.4518 81.5744 86.888 74.2667C97.6283 75.7365 108.435 76.616 119.25 77.2738C120.727 96.2059 124.47 114.958 127.346 133.736C105.35 133.815 83.4079 135.149 61.424 135.678C61.3543 136.035 61.3303 136.397 61.2797 136.757C61.2334 137.081 61.1329 137.39 61.0595 137.709C60.9219 138.301 60.8319 138.903 60.6925 139.495C76.9244 140.792 93.1544 139.188 109.398 139.139C114.523 138.384 127.609 141.163 130.645 137.325C131.107 137.182 131.512 136.88 131.814 136.495C131.814 136.495 131.814 136.498 131.816 136.498C132.342 135.765 132.712 134.9 133.127 134.097C133.126 134.099 133.124 134.1 133.123 134.103C133.192 133.967 133.264 133.832 133.337 133.696C133.281 133.803 133.226 133.909 133.17 134.016C138.182 124.962 143.104 115.865 148.553 107.063C150.026 102.887 156.474 97.5117 154.691 93.1264ZM69.7223 67.7351C59.758 66.3005 49.708 66.0456 39.6734 65.4168C41.448 61.521 43.5545 57.7836 45.4925 53.97C45.4925 53.9676 45.495 53.9651 45.495 53.9626C45.495 53.9651 45.495 53.9651 45.495 53.9651C45.4993 53.9589 45.5024 53.9502 45.5074 53.9434C45.5074 53.9434 45.5074 53.9434 45.5074 53.9409C45.5086 53.9397 45.5098 53.9379 45.5111 53.936C45.5098 53.936 45.5098 53.936 45.5098 53.936C49.146 46.5596 52.6879 39.143 56.3019 31.7604C56.2439 31.8718 56.1859 31.9826 56.1261 32.094C56.2032 31.9467 56.2778 31.8012 56.3549 31.6539C56.35 31.6639 56.3451 31.6756 56.3407 31.6855C56.3506 31.6639 56.3623 31.6447 56.3722 31.6224C56.3691 31.628 56.3654 31.6348 56.3617 31.6416C56.3956 31.5778 56.4296 31.5147 56.461 31.451C56.4586 31.4584 56.4536 31.4652 56.4512 31.4726C56.4795 31.42 56.5036 31.3705 56.5332 31.3179C56.5209 31.3371 56.5116 31.3587 56.4993 31.3785C58.6144 27.622 60.3193 23.6816 61.9638 19.7022C73.451 19.3104 84.8839 17.6766 96.3619 16.9463C94.5762 20.1985 92.3902 23.2174 90.7741 26.5655C90.779 26.5581 90.7815 26.5532 90.7864 26.5464C83.7342 40.257 76.7233 54.0034 69.7223 67.7351ZM74.1295 93.5732C73.1087 86.7718 72.6164 79.9208 71.862 73.0896C71.8429 72.8767 71.8238 72.6638 71.8041 72.4516C75.5433 72.9077 79.243 73.633 83.0106 73.849C83.2413 80.9221 85.238 87.783 86.1959 94.7701C82.1742 94.3029 78.195 93.4265 74.1295 93.5732ZM84.2949 69.3163C80.7388 69.0954 77.2174 68.5786 73.6909 68.0885C75.724 64.619 77.6368 61.0896 79.2831 57.4178C79.871 56.1924 80.4903 54.9807 81.117 53.7769C81.1114 53.7868 81.1059 53.7961 81.1003 53.8066C87.4247 41.6086 92.928 29.0268 99.2148 16.8133C102.502 16.6963 105.796 16.6295 109.079 16.4073C107.021 19.7152 105.006 23.0454 103.229 26.5173C103.267 26.4424 103.306 26.37 103.345 26.2951C103.275 26.4282 103.208 26.5587 103.138 26.6918C103.152 26.6627 103.167 26.6361 103.179 26.6095C96.0806 40.4538 90.2572 54.954 84.2949 69.3163ZM119.904 71.9224C119.657 72.0938 119.432 72.3142 119.247 72.563C108.842 71.7256 98.411 71.1482 88.0631 69.7006C96.3564 52.0899 102.417 33.4963 111.513 16.2551C121.869 15.7525 132.198 14.9449 142.54 14.2536C142.706 14.2369 142.87 14.2171 143.036 14.1979C140.353 19.1625 138.446 24.4737 136.532 29.7701C131.839 43.542 124.323 56.6083 120.404 70.4798C120.196 70.9458 120.042 71.4316 119.904 71.9224ZM147.409 100.065C147.411 100.065 147.411 100.062 147.414 100.06C147.385 100.1 147.361 100.139 147.332 100.18C147.332 100.178 147.332 100.178 147.332 100.178C141.143 108.991 136.186 118.642 131.335 128.24C129.625 116.698 128.739 105.022 126.694 93.5324C125.849 85.9486 122.104 78.2566 124.57 70.8078C130.098 57.5143 136.164 44.4053 140.952 30.8079C141.962 27.8974 142.913 24.9695 143.923 22.0638C144.541 45.492 148.393 68.7729 150.086 92.1516V92.1442C150.103 92.8838 150.084 93.7106 150.491 94.3344C149.473 96.248 148.675 98.3014 147.409 100.065Z" fill="#212121"></path><path d="M1.32921 117.198C1.32731 117.179 1.32351 117.15 1.32097 117.128C1.314 117.086 1.30448 117.045 1.29688 117.002C1.30702 117.067 1.31907 117.133 1.32921 117.198Z" fill="#212121"></path><path d="M65.3124 136.882C65.3157 136.882 65.3191 136.882 65.3224 136.882C65.4522 136.342 65.5338 135.792 65.6602 135.251C65.7385 134.916 66.0153 133.378 66.0349 133.377C66.5472 130.899 66.7111 128.378 66.9706 125.867C67.0142 125.103 67.0024 124.34 66.9795 123.576V123.598C66.9778 123.549 66.9767 123.5 66.975 123.452C66.975 123.463 66.975 123.474 66.975 123.484C66.9728 123.353 66.9678 123.223 66.9638 123.092C66.9661 123.173 66.9683 123.251 66.9706 123.332C66.965 123.176 66.961 123.02 66.956 122.865C66.4862 113.96 66.4024 104.197 63.7157 95.8661C62.978 94.5962 61.3265 95.0396 60.0978 94.9186C56.155 94.7379 52.1826 94.1601 48.4104 92.9812C48.0156 92.8551 44.8272 91.6176 44.8267 91.6059C41.0746 90.1269 37.5826 87.9001 34.7382 85.1217C31.3636 83.9573 32.5531 91.3739 24.3398 97.6763C18.3692 103.205 13.8011 103.5 11.1564 105.197C10.3913 105.318 9.59551 105.783 8.78571 105.638C7.94961 105.697 7.4748 106.231 7.25948 107.083C6.32832 108.782 8.19121 116.023 8.34109 117.351C8.90203 120.56 9.90199 123.671 10.8768 126.775C11.0222 127.303 11.1726 127.822 11.3287 128.331C12.0434 130.891 12.8196 133.471 14.2888 135.691C19.9731 146.632 29.7384 152.23 45.0023 158C50.0155 158.007 54.9509 151.366 58.3568 147.986C58.3373 148.005 58.3199 148.027 58.2998 148.049C61.3265 144.85 64.2291 141.229 65.3124 136.882ZM52.4785 111.657C48.713 118.784 42.343 136.315 35.284 139.33C30.0616 137.686 23.7152 132.1 23.3488 126.402C24.7157 121.427 30.9827 127.717 33.4966 128.998C36.6531 120.574 39.1602 111.393 45.1913 104.497C51.3476 97.9708 55.3777 105.546 52.4785 111.657Z" fill="#4CAF50"></path></svg>