<svg xmlns="http://www.w3.org/2000/svg" width="180" height="168" viewBox="0 0 180 168" fill="none"><path d="M179.984 83.4803C179.873 82.5545 178.561 81.6745 177.669 81.4514C175.891 81.0084 174.215 80.8027 172.691 80.8278C166.969 80.9418 161.153 81.0913 155.529 81.237C151.103 81.351 146.678 81.465 142.251 81.5638C141.826 81.579 141.369 81.4312 140.882 81.2795C140.806 81.2561 140.729 81.2326 140.653 81.2092C140.658 81.1852 140.664 81.1606 140.668 81.1366C140.746 80.7586 140.819 80.4007 140.977 80.1421C146.266 71.4527 148.459 62.0617 147.68 51.4335C147.038 42.6649 143.853 34.4834 137.352 24.9059C136.936 24.2938 136.372 23.8137 135.826 23.3495C135.657 23.2049 135.487 23.0609 135.323 22.913C128.169 16.4609 119.432 14.5499 108.612 17.0746C101.236 18.7947 94.7281 22.7079 89.2693 28.7051C88.099 29.9904 87.5759 30.2991 85.8521 29.0231C75.6606 21.4815 64.4245 19.5138 52.4563 23.1694C43.5313 25.8972 36.3895 31.9265 29.9814 42.1445C22.1162 54.6849 21.4331 67.03 27.9517 78.8361C28.3556 79.5676 28.7284 80.3418 29.0887 81.0902C29.2324 81.3886 29.3761 81.6871 29.522 81.9838C29.731 82.4088 30.2868 83.5386 30.2002 83.7694C30.0418 83.9598 28.7948 84.0313 28.3256 84.0585L26.7608 84.1486C19.0071 84.5943 10.9895 85.0558 3.11179 85.645C2.04386 85.7257 0 86.663 0 87.8932C0 89.8947 2.41944 90.095 3.21466 90.161C4.25973 90.2444 5.31078 90.1184 6.32646 89.9946C7.22293 89.886 8.07259 89.784 8.91299 89.8135C15.5268 90.059 24.2461 90.4157 33.0388 90.9946C34.0256 91.0595 35.2595 91.9176 35.9682 92.7316C36.8614 93.7577 37.6735 94.9028 38.4595 96.0114C39.2781 97.1663 40.1256 98.361 41.0798 99.4477C45.0532 103.969 49.1398 108.523 53.091 112.928C55.7983 115.945 58.5052 118.962 61.1984 121.992C68.1132 129.771 75.4641 138.055 82.6407 146.284C84.0603 147.912 85.2724 149 86.5341 149C86.5793 149 86.6239 148.999 86.6691 148.996C88.0337 148.912 89.1637 147.618 90.6529 145.412C93.5611 141.106 96.8988 136.55 100.858 131.48C111.637 117.679 122.562 103.884 133.739 89.7895C134.303 89.0781 135.172 88.2789 135.917 88.1708C138.816 87.7502 141.348 87.5926 143.662 87.6908C146.31 87.8026 148.908 87.808 151.658 87.814C155.044 87.8211 158.544 87.8277 162.299 88.0448C162.74 88.071 163.219 88.0704 163.768 88.0432C165.047 87.9799 166.448 88.0104 167.931 88.0426C170.198 88.0912 172.544 88.1436 174.935 87.8855C176.347 87.7338 177.719 87.2396 178.7 86.5304C179.508 85.9456 180.108 84.5206 179.984 83.4803ZM84.2372 36.6945C84.075 36.9237 83.9547 37.185 83.8583 37.3956L83.8121 37.4959C82.6331 40.0207 83.4327 41.1222 84.0146 41.5542C84.5327 41.9388 85.0362 42.0872 85.5114 41.9896C86.3153 41.8275 86.7769 41.0491 87.1846 40.3628C87.3016 40.1664 87.4154 39.9727 87.534 39.8052C88.1061 38.9951 88.6607 38.1555 89.1969 37.3426C90.1826 35.8495 91.2026 34.3056 92.3484 32.9254C100.52 23.0822 110.731 19.2535 122.704 21.5503C127.705 22.5093 131.705 25.1678 134.271 29.2386C137.166 33.831 140.652 39.9923 141.925 46.9349C142.254 48.7297 142.367 50.6124 142.476 52.4334C142.527 53.2839 142.578 54.1339 142.65 54.9806C143.008 64.6705 139.745 73.8634 132.674 83.0858C131.172 85.0449 129.675 87.0088 128.178 88.9728C122.294 96.6906 116.211 104.671 109.894 112.234C105.014 118.076 99.7711 123.788 94.7009 129.312C92.0501 132.2 89.3096 135.187 86.6506 138.158C86.2745 138.579 85.9425 138.794 85.6643 138.799C85.2409 138.827 84.788 138.349 84.3422 137.881L81.348 134.744C78.8181 132.095 76.201 129.356 73.651 126.642L70.3623 123.142C63.4366 115.773 56.2751 108.153 49.2781 100.616C39.9237 90.5396 33.3125 79.2392 29.6281 67.0305C27.8956 61.2903 28.7671 55.2146 32.3704 47.9098C35.8202 40.9159 40.7527 35.8424 47.0301 32.8315L47.4906 32.6106C51.2779 30.7929 55.1942 28.9129 59.228 27.9173C61.2621 27.4159 63.2798 27.1639 65.2894 27.1639C71.4912 27.1639 77.6097 29.5616 83.8431 34.4082C84.7771 35.1337 84.8876 35.7753 84.2372 36.6945Z" fill="#212121"></path><path d="M79.7686 61.2762L79.7099 60.8043C79.4736 58.8599 79.1508 56.1961 76.2448 55.926C73.4444 55.6696 72.6148 58.0918 72.0096 59.8632C71.9366 60.0781 71.8642 60.2893 71.7902 60.4933C69.2891 67.3917 66.3216 74.6883 61.5845 81.3128C59.9766 83.5616 58.384 84.9102 55.4235 84.6968C53.2534 84.5386 51.044 84.8643 48.9076 85.1797L48.181 85.2855C47.6122 85.3646 46.7522 85.483 46.3004 86.1011C46.1469 86.3111 45.9831 86.6673 46.0576 87.184C46.0664 88.5953 47.4756 88.8075 48.157 88.9095L48.3726 88.9433C49.5156 89.1403 50.6821 89.2559 51.8099 89.3678C52.8985 89.4753 54.0246 89.5865 55.1094 89.7709C60.2297 90.6405 64.1166 88.6684 66.6607 83.9102C68.1477 81.129 69.5907 78.2682 70.9863 75.5023C71.8142 73.8613 72.6421 72.2203 73.4825 70.5864C73.6202 70.3185 73.808 70.0638 74.0115 69.8014C74.1612 70.0376 74.2869 70.2607 74.318 70.4625C74.8182 73.6927 75.301 76.9829 75.7685 80.1645C76.7145 86.6073 77.6927 93.269 78.864 99.7882C79.5841 103.795 80.799 107.999 82.8031 113.417C83.5564 115.454 84.6151 116 85.3701 116.099C85.4604 116.11 85.5557 116.117 85.6564 116.117C86.4418 116.117 87.5435 115.703 88.7469 113.995C90.062 112.128 90.9399 110.427 91.4315 108.795C93.5472 101.762 95.4871 94.6814 97.3622 87.8337C97.403 87.6848 97.4411 87.5359 97.4787 87.3896C97.8009 86.1196 98.0001 85.5337 99.2308 85.5757C101.525 85.6074 103.624 85.5446 105.656 85.4824C107.34 85.4311 109.08 85.3782 110.954 85.3782L110.975 85.3777C111.182 85.3695 111.335 85.3706 111.447 85.3733C111.611 85.3733 111.767 85.3777 111.91 85.3182C112.634 85.3199 113.359 85.3302 114.084 85.3411C115.906 85.3673 117.792 85.3951 119.648 85.2735L120.044 85.2495C121.801 85.1486 124.21 85.0105 124.532 82.1213C124.609 81.4274 124.411 80.8071 123.961 80.3271C123.138 79.452 121.545 79.0658 119.235 79.1852L112.487 79.5295C107.971 79.7602 103.456 79.991 98.9401 80.2179C94.4959 80.4422 93.5216 81.614 92.4792 85.5261C90.8763 91.5423 89.0801 97.6186 87.3426 103.495L86.8539 105.148C86.7401 105.517 86.3874 105.535 86.2867 105.529C86.0532 105.52 85.7522 105.388 85.6732 105.044C85.6667 105.015 85.6607 104.987 85.6553 104.953L85.4152 103.529C84.6625 99.073 83.8836 94.4653 83.2946 89.915C82.6997 85.3204 82.1402 80.6413 81.5991 76.1166C81.0178 71.2503 80.4164 66.2188 79.7686 61.2762Z" fill="#8B68C8"></path></svg>